<?xml version="1.0" encoding="utf-8"?>
<!-- Generator: Adobe Illustrator 19.2.1, SVG Export Plug-In . SVG Version: 6.00 Build 0)  -->
<svg version="1.1" id="layer" xmlns="http://www.w3.org/2000/svg" xmlns:xlink="http://www.w3.org/1999/xlink" x="0px" y="0px"
	 viewBox="0 0 652 652" style="enable-background:new 0 0 652 652;" xml:space="preserve">
<path d="M38.4,348.5c-12.8-12.9-12.8-33.9,0.1-46.8c9.9-10,24.6-12.2,36.7-6.9v16.9c-7.4-7.4-19.3-7.4-26.7,0
	c-7.4,7.4-7.4,19.4,0,26.8l9.9,10L38.4,348.5z M75.1,334.9v-23.1L52,334.9H75.1z M460.4,307.4h-8.1c-0.6-5.1-5.1-8.1-11.5-8.1
	c-6.8,0-11.2,3.5-11.2,8.2c0,5.3,5.8,7.4,10.1,8.5l5.4,1.4c7.1,1.7,16,5.6,16,15.6c0,9.4-7.5,16.3-20.6,16.3
	c-12.5,0-20.3-6.2-20.8-16.3h8.4c0.5,6.1,5.9,8.9,12.3,8.9c7.1,0,12.3-3.6,12.3-9c0-4.9-4.6-6.9-10.5-8.5l-6.6-1.8
	c-8.9-2.4-14.5-6.9-14.5-14.7c0-9.6,8.6-16,19.7-16C452.3,292,460.2,298.5,460.4,307.4z M101.3,292.8v55.6h35.2v-7.2h-26.8v-17h24.6
	V317h-24.6V300h26.5v-7.2H101.3z M142.8,306.7V364h8.1v-22.1h0.5c1.5,2.7,4.5,7.3,12.1,7.3c10.1,0,17.4-8.1,17.4-21.6
	c0-13.5-7.4-21.5-17.5-21.5c-7.7,0-10.5,4.7-12,7.3h-0.7v-6.8H142.8z M150.8,327.5c0-8.7,3.8-14.5,10.9-14.5c7.4,0,11,6.2,11,14.5
	c0,8.4-3.8,14.7-11,14.7C154.7,342.3,150.8,336.3,150.8,327.5z M185.9,301.2v-8.4h8.7v8.4H185.9z M186.2,348.4v-41.7h8.1v41.7H186.2
	z M217,349.2c7.6,0,10.6-4.6,12.1-7.3h0.7v6.5h7.9v-55.6h-8.1v20.6h-0.5c-1.5-2.6-4.2-7.3-12-7.3c-10.1,0-17.5,7.9-17.5,21.5
	C199.6,341.1,206.9,349.2,217,349.2z M218.8,342.3c-7.2,0-11-6.4-11-14.7c0-8.3,3.7-14.5,11-14.5c7.1,0,10.9,5.8,10.9,14.5
	C229.7,336.3,225.8,342.3,218.8,342.3z M280.8,338c-1.8,6.8-8.3,11.3-17.4,11.3c-12.3,0-19.8-8.5-19.8-21.4
	c0-12.8,7.7-21.7,19.3-21.7c9.4,0,18.5,5.9,18.5,20.9v2.9h-29.6c0.2,8,4.9,12.5,11.8,12.5c4.6,0,8.1-2,9.6-5.9L280.8,338z
	 M251.7,323.9h21.7c0-6.4-4.2-11-10.5-11C256.3,312.9,252,318,251.7,323.9z M286.5,306.7v41.7h8.1v-25.7c0-5.6,3.9-9.5,8.5-9.5
	c4.5,0,7.6,3,7.6,7.5v27.7h8.1v-26.6c0-5,3.1-8.7,8.4-8.7c4.3,0,7.8,2.4,7.8,8v27.2h8.1v-27.9c0-9.5-5.3-14.3-12.9-14.3
	c-6,0-10.5,2.9-12.5,7.3h-0.4c-1.8-4.6-5.6-7.3-11.2-7.3c-5.5,0-9.6,2.7-11.3,7.3h-0.5v-6.8H286.5z M350,301.2v-8.4h8.7v8.4H350z
	 M350.2,348.4v-41.7h8.1v41.7H350.2z M383,349.2c9.9,0,16.2-5.9,17.1-14h-7.9c-1,4.5-4.5,7.2-9.2,7.2c-6.9,0-11.3-5.7-11.3-14.8
	c0-8.9,4.5-14.5,11.3-14.5c5.2,0,8.3,3.3,9.2,7.2h7.9c-0.9-8.4-7.7-14-17.2-14c-11.8,0-19.4,8.8-19.4,21.6
	C363.6,340.3,370.9,349.2,383,349.2z M484.3,349.2c11.8,0,19.4-8.6,19.4-21.5c0-13-7.7-21.6-19.4-21.6s-19.4,8.6-19.4,21.6
	C464.9,340.6,472.6,349.2,484.3,349.2z M484.3,342.4c-7.7,0-11.3-6.7-11.3-14.7c0-8,3.6-14.8,11.3-14.8c7.6,0,11.2,6.8,11.2,14.8
	C495.6,335.7,492,342.4,484.3,342.4z M535.4,331.1v-24.4h8.1v41.7h-8v-7.2h-0.4c-1.9,4.4-6.2,7.8-12.5,7.8c-8,0-13.7-5.4-13.7-15.7
	v-26.5h8.1v25.5c0,5.7,3.5,9.3,8.5,9.3C530.2,341.5,535.4,338.2,535.4,331.1z M558.7,348.4v-24.7c0-6.6,4.1-10.4,9.7-10.4
	c5.5,0,8.8,3.6,8.8,9.7v25.5h8.1v-26.5c0-10.3-5.7-15.7-14.2-15.7c-6.3,0-10.4,2.9-12.3,7.3h-0.5v-6.8h-7.8v41.7H558.7z
	 M620.2,341.9c-1.5,2.7-4.5,7.3-12.1,7.3c-10.1,0-17.4-8.1-17.4-21.6c0-13.5,7.4-21.5,17.5-21.5c7.8,0,10.5,4.7,12,7.3h0.5v-20.6
	h8.1v55.6h-7.9v-6.5H620.2z M598.9,327.5c0,8.4,3.8,14.7,11,14.7c7,0,10.9-6,10.9-14.7c0-8.7-3.8-14.5-10.9-14.5
	C602.6,313,598.9,319.3,598.9,327.5z"/>
</svg>
